<svg height="231.840462" viewBox="0 0 159.94 86.257" width="431.331093" xmlns="http://www.w3.org/2000/svg"><g transform="translate(-1.9623 -.94308)"><g fill="#231f20"><path clip-rule="evenodd" d="m64.2 52.9c-1.8 0-2.7 1.6-2.7 3.1 0 1.7 1 2.6 2.3 2.6 1.6 0 2.7-1.3 2.7-3.2-.1-1.7-1.1-2.5-2.3-2.5z" fill-rule="evenodd"/><path d="m52.9 37.8-.1.4.8.1c.3 0 .4.2.3.7l-1.3 6.1c-.2.8-.3 1.4-.5 1.8-.2.5-.4.6-.8.6h-.4l-.1.4h3.2l.1-.4h-.5c-.4 0-.7-.2-.6-.6 0-.5.1-1.1.3-1.8l1.3-6.1c1.3 3 2.5 6 3.7 9h.9l1.5-7.3c.2-.8.3-1.4.5-1.8.2-.5.4-.6.8-.6h.4l.1-.4h-3.2l-.1.4.5.1c.4.1.7.1.6.6 0 .5-.1 1.1-.3 1.8l-1.1 5.4h-.1c-1.2-2.8-2.3-5.6-3.4-8.3h-2.5z"/><path d="m63.9 37.8-.1.4.8.1c.3 0 .4.2.3.7l-1.6 7.8c-.1.5-.2.7-.6.7l-.8.1-.1.4h7l.7-2.6h-.4c-.7 1.8-1.3 2.1-2.9 2.1-.7 0-1.3 0-1.5-.2s-.2-.4-.1-1.1l.7-3.3h1.8c1.2 0 1.2.3 1.2 1.3h.4l.6-3.1h-.4c-.3 1-.5 1.3-1.7 1.3h-1.8l.8-3.7c.1-.4.1-.4.4-.4h1.6c1.7 0 1.7.6 1.5 2h.4l.5-2.5z"/><path d="m71.7 37.8-.1.4.6.1c.3 0 .4.2.4.6l.6 9.1h.9l3.7-8.2h.1l.7 8.2h.9l2.3-5.3c.8-1.7 1.4-3.2 1.7-3.7.4-.7.5-.8 1.3-.9l.1-.4h-3l-.1.4.9.1c.2 0 .2.2.1.5-.2.6-.7 1.8-1.5 3.7l-1.6 3.7h-.1l-.6-8h-1l-3.6 8.2h-.1l-.4-7.5c0-.3.1-.5.3-.5l.9-.1.1-.4z"/><path d="m89.6 37.8-.1.4.8.1c.3 0 .4.2.3.7l-1.6 7.9c-.1.5-.2.7-.6.7l-.8.1-.1.4h7l.7-2.6h-.4c-.7 1.8-1.3 2.1-2.9 2.1-.7 0-1.3 0-1.5-.2s-.2-.4-.1-1.1l.7-3.3h1.8c1.2 0 1.2.3 1.2 1.3h.4l.6-3.1h-.4c-.3 1-.5 1.3-1.7 1.3h-1.8l.8-3.7c.1-.4.1-.4.4-.4h1.6c1.7 0 1.7.6 1.5 2h.4l.5-2.5h-6.7z"/><path d="m98.2 37.8-.1.4.8.1c.3 0 .4.2.3.7l-1.3 6.1c-.2.8-.3 1.4-.5 1.8-.2.5-.4.6-.8.6h-.4l-.1.4h3.2l.1-.4h-.5c-.4 0-.7-.2-.6-.6 0-.5.1-1.1.3-1.8l1.3-6.1c1.3 3 2.5 6 3.7 9h.9l1.5-7.3c.2-.8.3-1.4.5-1.8.2-.5.4-.6.8-.6h.4l.1-.4h-3.2l-.1.4.5.1c.4.1.7.1.6.6 0 .5-.1 1.1-.3 1.8l-1.1 5.4h-.1c-1.2-2.8-2.3-5.6-3.4-8.3h-2.5z"/><path d="m116.3 38.4c-.8-.5-1.9-.7-3-.7-2.1 0-3.6.8-4.5 2.1-.9 1.2-1.3 2.8-1.3 4.1 0 1.5.4 2.7 1.1 3.4.8.8 1.9 1.1 3.1 1.1 1 0 2.1-.3 2.9-.6l.6-3c.1-.5.2-.7.4-.8l.6-.1.1-.4h-3.5l-.1.4 1 .1c.3 0 .4.2.2.7l-.5 2.2c-.1.4-.3.8-1.7.8-1.6 0-2.8-1.2-2.8-3.8 0-2.4 1.1-5.9 4.3-5.9 2 0 2.2 1.3 2.1 2.5h.4z"/><path d="m123.3 48.1.7-2.6h-.4c-.7 1.8-1.3 2.1-2.8 2.1-.7 0-1.3 0-1.5-.2s-.2-.4-.1-1.1l1.5-7.2c.1-.5.2-.7.6-.7l.8-.1.1-.4h-3.8l-.1.4.8.1c.3 0 .4.2.3.7l-1.6 7.8c-.1.5-.2.7-.6.7l-.7.1-.1.4z"/><path clip-rule="evenodd" d="m133.5 48.1.1-.4h-.5c-.4 0-.5-.3-.5-.9l-1-8.9h-1l-2.3 4.4c-.7 1.3-1.8 3.5-2.3 4.4-.4.8-.7.9-1.1 1l-.4.1-.1.4h3l.1-.4-.7-.1c-.3 0-.3-.2-.2-.5.4-.9.9-1.9 1.4-2.9h3l.3 2.9c0 .4-.1.6-.3.6l-.7.1-.1.4h3.3zm-2.6-4.5h-2.7c.7-1.5 1.5-2.9 2.2-4.4z" fill-rule="evenodd"/><path d="m136.1 37.8-.1.4.8.1c.3 0 .4.2.3.7l-1.3 6.1c-.2.8-.3 1.4-.5 1.8-.2.5-.4.6-.8.6h-.4l-.1.4h3.2l.1-.4h-.5c-.4 0-.7-.2-.6-.6 0-.5.1-1.1.3-1.8l1.3-6.1c1.3 3 2.5 6 3.7 9h.9l1.5-7.3c.2-.8.3-1.4.5-1.8.2-.5.4-.6.8-.6h.4l.1-.4h-3.2l-.1.4.5.1c.4.1.7.1.6.6 0 .5-.1 1.1-.3 1.8l-1.1 5.4h-.1c-1.2-2.8-2.3-5.6-3.4-8.3h-2.5z"/><path clip-rule="evenodd" d="m150.5 38.4c2.8.1 3 2.1 3 3.3 0 1.3-.3 2.5-.9 3.6-.8 1.4-1.9 2.3-4.2 2.3-.7 0-1.2-.1-1.1-.8l1.6-7.9c.2-.5.4-.5 1.6-.5zm-5.8 9.7h4.1c2.7 0 4.3-1.1 5.2-2.7.8-1.3.9-2.5.9-3.4 0-1.2-.4-2.4-1.2-3.1s-2-1.1-3.5-1.1h-3.6l-.1.4.8.1c.3 0 .4.2.3.7l-1.6 7.8c-.1.5-.2.7-.5.7l-.8.1z" fill-rule="evenodd"/><path d="m32.3 87.1h12.3c9.8 0 11.7-6.1 11.7-10.2 0-5.2-3.1-7.5-6.1-8.2v-.1c5.4-.8 7.6-4.4 7.6-8.2 0-2.6-.8-4.6-2.5-5.8-1.8-1.3-4.4-1.7-7.3-1.6h-9.7l-.3 1.3 2.4.3c.9.1 1.2.7.8 2.4l-4.8 26c-.3 1.6-.7 2.2-1.7 2.4l-2.3.3zm12.1-17.5c4 0 7.5 1.4 7.5 7 0 4.4-2.2 8.8-7.6 8.8-4 0-4.2-1.2-3.8-3.2l2.3-12.6zm-1.3-1.8 2.1-11.5c.3-1.5.5-1.7 3.2-1.7 3.4 0 5.3 2.1 5.3 5.5 0 2.5-1 4.4-2.4 5.8-1.3 1.2-3.4 1.8-5.6 1.8h-2.6z"/><path d="m80.6 63.8c-9.6 0-11.9 11.2-11.9 15.1 0 4.9 2.3 8.2 7.4 8.2 4.4 0 7.2-2.4 9.1-5.8 1.9-3.3 2.5-7.1 2.5-9.6.1-6.2-3.8-7.9-7.1-7.9m0 1.6c2.5 0 3.3 2 3.3 4.8 0 3.2-2.1 15.4-7.6 15.4-2.3 0-3.6-1.6-3.6-4.8 0-5 2.5-15.4 7.9-15.4"/><path d="m115.8 63.8-.3 1c-.7-.5-1.9-1-2.9-1-9.6 0-14.2 11.9-14.2 17.9 0 2.7 1.1 5.4 3.9 5.4 4.3 0 8.1-5.6 10.4-10.2h.1l-1.4 5.2c-.8 3.2-.4 5.1 1.8 5.1 3.1 0 5.3-3.1 6.7-6.5l-1-.6c-.7 1.6-2.5 4.8-3.6 4.8-.8 0-.8-1-.4-2.5l4.4-18.4h-3.5zm-.7 2.6c-.7 3.4-2.2 7.8-4.3 11.5-2.3 3.9-4.7 6.9-6.7 6.9-1.3 0-1.8-1.4-1.8-3.2 0-5 4-16.2 10.3-16.2 1 0 1.9.4 2.5 1"/><path d="m131.1 53-7.5 1.1-.2 1 2.3.3c1 .1 1.2.5.8 2.2l-6.1 29.5h1.3l1.5-3.2c.7 1.9 2.8 3.2 5.1 3.2 4.7 0 8.2-3.5 10.2-7.5s2.7-8 2.7-10.1c0-3.3-1.3-5.7-4.3-5.7-3.1 0-7.1 3.1-10.2 9.3h-.1zm6.1 16.9c0 3.3-2.4 15.6-8.4 15.6-2.1 0-3.3-1.6-3.3-3.9 0-2.2.8-5.3 2.1-7.9 1.8-3.6 4.9-7.5 7.4-7.5 1.5 0 2.2 1.2 2.2 3.7"/><path d="m149.8 63.8c-4.1 0-6.5 3-6.5 6.7 0 2.4 1.5 4.4 3.6 6.3 1.7 1.5 2.8 3.5 2.8 5.3 0 2.1-1.2 3.4-2.9 3.4-1.5 0-3-1.4-3.6-3.8-.2-.9-.6-1.4-1.3-1.4-1.2 0-2.1 1.2-2.1 2.4 0 1.9 2.2 4.3 6.1 4.3 4.4 0 7-3.1 7-6.8 0-2.5-1-4.4-3.7-6.9-2.4-2.2-2.9-3.7-2.9-5 0-1.4 1-2.9 2.5-2.9 1.3 0 2.4 1 3.2 3.1.2.5.5.9 1.1.9.8 0 1.9-.7 1.9-2.1-.1-1.3-1.6-3.5-5.2-3.5"/><path d="m159.5 64.9c1.1 0 2 .9 2 2.1s-.9 2.1-2 2.1-2-.9-2-2.1c.1-1.2.9-2.1 2-2.1m0 4.4c1.3 0 2.4-1.1 2.4-2.4s-1.1-2.4-2.4-2.4-2.4 1.1-2.4 2.4c0 1.4 1.1 2.4 2.4 2.4m-.3-3.3c0-.1 0-.1.3-.1.2 0 .5.1.5.5s-.2.5-.6.5h-.2zm.3 2.2v-.1h-.2c-.1 0-.1-.1-.1-.2v-.8h.2c.2 0 .3.1.4.2s.1.4.2.7c.1.2.2.3.5.3h.3v-.1c-.1 0-.2-.1-.2-.1-.1-.1-.1-.2-.2-.4-.1-.3-.1-.5-.5-.6.4-.1.6-.3.6-.6 0-.4-.2-.6-.9-.6h-1.2v.1h.2c.1 0 .1.1.1.2v1.8c0 .1 0 .2-.1.2h-.2v.1h1.1z"/><path d="m92.1 84.7c-.8 0-.8-1-.4-2.5l5.5-25.6.8-3.8-7.4 1.2-.2 1 2.3.3c.7.1 1 .3 1 1.1l-5.5 26.2c-.6 2.6-.1 4.4 2.1 4.4 2.9 0 5.2-3.1 6.5-6.5l-1-.6c-.8 1.6-2.6 4.8-3.7 4.8z"/><path d="m66.2 79.9c-.7 1.6-2.5 4.8-3.6 4.8-.8 0-.8-1-.4-2.5l1-4.4 2.2-10.2.8-3.8-7.5 1.1-.2 1 2.3.3c.7.1 1 .3 1 1.1l-2.2 10.5-1 4.9c-.6 2.6-.1 4.4 2.1 4.4 2.9 0 5.2-3.1 6.5-6.5z"/><path d="m60.6 30.7c-.7-.1-1.3 0-1.6.2-.1 0-.1.1-.2.1-3.8.1-10.6 1.3-15.6 7-.1.1-.1.2-.3.1-.1-.1-.3-.1-.4-.2-.2-.1-.1-.2-.1-.3 2.2-6 7.9-9.1 11.2-10.4h.2c.4 0 .9 0 1.5-.2.9-.3 1.6-.7 1.5-1s-1-.3-1.9 0c-.6.2-1 .4-1.3.7-.1.1-.2.1-.3.2-2.8 1.1-9.1 4.4-11.4 10.6-.1.2-.2.4-.4.3-.8 0-1.2.2-1.6.7-.9 1.1-1.6 2.9-2 3.6-.1.2-.4.1-.4-.1-.4-4.6-3.1-28.8-14-39.4-.3-.3-.6-.5-.9-.7-1.2-.8-2.8-1.2-4.2-.8-1.8.4-2.7 2.1-3.4 3.6-.9 2-1.6 4-2.3 6.1-1.2 4.2-1.9 8.6-1.9 13v.7c.1 1.6.9 3.3 2.2 4.5 0 0 1.1 1.3 4.5 3.8.1.1 0 .3-.1.3-1.5-.4-2.6-.6-3.3-.7-4.2-.8-8.3.6-10.6 4-2.1 3.2-2 7.4 0 10.8.1.2.2.5.1.8-.5 2 .4 4.3 2.5 5.7.2.1.3.2.5.3.3.1.4.4.5.7.1 1.6 1 3.2 2.6 4.3.9.6 2.1.9 2.4 1 4.8.6 16-5.3 16.3-5.4.3-.2.7.1.5.3-.4.5-.8 1-1.3 1.5-.6.6-1.3 1.1-2 1.6-1.2.8-2.4 1.5-3.7 2.1l-2.1.9c-.3.1-.6.3-.9.5-.8.7-2.2 3-2.5 3.9-.1.4-.2.9.1 1.2.6.5 3.3-1.1 7.3-3.5 1.7-1 3.4-1.9 4.9-3.1 2.1-1.6 3.9-3.8 5.4-6 .4-.5.9-.9 1.3-1.3 1.3-1.4 2.5-2.7 3.2-4.5.6-1.5 1-3 1.1-4.6 0-.3.3-.4.5-.4.6.2 1.7.5 2.4.7.8.2 2 .6 2.5-.3.5-.8-1-3.8-1.6-4.9-.1-.1-.1-.3 0-.4 4.9-5.6 11.5-6.7 15.2-6.8.1 0 .2 0 .3.1.3.2.8.3 1.4.4 1 .1 1.8-.1 1.8-.5.2-.3-.6-.7-1.6-.8z"/></g><path d="m26.9 10.9c.4.5 3.7 4.7 1.9 4.9-1.9.2-6.5-4.9-6.5-6.3.1-1.9 2.9-.8 4.6 1.4z" fill="#fff"/><path d="m21.7 12.6c.7.5 1.2 1.1 1.8 1.6.7.6 1.3 1.2 1.9 1.9.4.4.8 1 .8 1.6v2.1c0 .2 0 .6-.2.7-.2.2-.5-.1-.6-.2-.6-.4-1.2-.8-1.7-1.3l-3.3-2.5s-1.7-1.2-1.3-2.2c.3-.7 1.1-2 1.9-2 .1 0 .4.1.7.3z" fill="#f58025"/><path d="m25.8 24 1.1 2.8c.1.3.3.8 0 1s-.7-.2-1-.3c-1.1-.7-2.2-1.4-3.2-2.1l-6.3-4s-3.2-1.9-3-3.2c.1-.9.6-2.5 1.8-2.5.5 0 .9.2 1.4.5 1.2.7 2.4 1.7 3.5 2.6 1.3 1 2.6 1.9 3.8 3 .6.6 1.6 1.4 1.9 2.2z" fill="#f58025"/><path d="m19.8 3.6c.5 0 1.1.4 1.5.8s.8.9 1 1.4c.2.6.2 1.2-.2 1.7-.8 1-2.3.2-3-.6-.6-.7-.9-2-.4-2.8.3-.4.7-.5 1.1-.5z" fill="#fff"/><path d="m16.3 8.2c.8 0 1.6.7 2.1 1.4.7 1.1.4 3.3-1.3 2.8-.8-.3-2.1-1-2.2-2.2-.1-.8.6-2 1.4-2z" fill="#fff"/><path d="m9.3 35.2c1.3-.4 2.8-.3 4.2 0 2.3.5 4.6 1.5 6.6 2.9.3.2.5.4.6.7.2.6-.3 1.2-.9 1.1-.3 0-8.9-1.8-10.8-2.2-.5-.1-1.2-.3-1.3-.9-.2-.8.9-1.4 1.6-1.6z" fill="#f58025"/><path d="m5.4 45c-.7-.6-.7-2-.5-2.7.4-1 1-1.6 2-1.9 1.1-.4 2-.3 3-.2 2.2.3 7.9 1.2 8.5 1.5.5.3.5.9 0 1.1-1.2.6-3.4.8-6.8 1.5-2.5.6-5.4 1.3-6.2.7z" fill="#f58025"/><path d="m8.2 51.5s-.1 0-.1-.1c-.5-.3-.9-.9-.9-1.5s.2-1.2.7-1.7c.5-.4 1.1-.6 1.7-.8 1.5-.5 7.1-2.2 8.5-2.3 3.5-.3 6-.1 9.4.4 1.4.2 2.2.4 2.5.7.4.4-.1.7-.5.8-5.4 1.6-10.5 2.7-16 4.1-2.7.8-3.9 1.1-5.3.4z" fill="#f58025"/><path d="m27.4 52c-2.9 1.5-4.4 2.3-7.3 3.3-1.8.7-3.6 1.3-5.5 1.8-1.2.3-3 .2-3.8-1.1s.6-1.8 1.5-2.1c3.1-.9 10.1-2.6 12.4-3.3s4.3-1.3 4.8-1.3c.2 0 .7.3.4.6-.4.6-1 1.3-2.5 2.1z" fill="#fff"/><path d="m30.7 30.5c-.7-1.4-2.8-6.6-3-8-.1-.5-.2-2.3.7-2.3 1.8 0 2.6 2.5 3 3.5 1.1 2.6 1.7 5.3 2.3 8 .4 1.5 1.4 5.1.8 5.3-.7.3-2.9-4.6-3.8-6.5z" fill="#f58025"/><path d="m21.2 41.6c.5-.7 1.1-1.6 2.7-1.6s4.6 1.4 6.4 2.3 2.4 1.5 2.6 1.9-.5.9-1.9.4c-4-1.3-9.2-1.4-10-1.7-.7-.2-.1-.9.2-1.3z" fill="#fff"/><path d="m34.5 43c-1.2-1-2.2-2-3.9-3.4-5.2-4.3-8.6-6.9-14.5-11.1-1.1-.7-2.1-1.5-2.4-2.7-.1-.5 0-.9.2-1.3.8-1.6 2.6-.5 2.6-.5l9.1 5.7c2.5 1.5 3.2 2.8 3.2 2.8s6.3 9.6 6.6 10.1-.4.8-.9.4z" fill="#f58025"/></g></svg>