<svg width="72" height="66" viewBox="0 0 72 66" fill="none" xmlns="http://www.w3.org/2000/svg">
<path d="M68.5381 23.0092C69.7854 26.2817 70.4633 29.7982 70.4633 33.4593C70.4633 50.9937 54.9135 65.2083 35.7318 65.2083C16.5499 65.2083 1 50.9937 1 33.4593C1 15.9247 17.1734 1.0001 36.3551 1.0001C37.23 1.0001 45.7109 0.912627 54.2891 5.98318C59.4649 9.04267 64.6233 13.9853 68.3177 21.9422" fill="black"/>
<path d="M68.5381 23.0092C69.7854 26.2817 70.4633 29.7982 70.4633 33.4593C70.4633 50.9937 54.9135 65.2083 35.7318 65.2083C16.5499 65.2083 1 50.9937 1 33.4593C1 15.9247 17.1734 1.0001 36.3551 1.0001C37.23 1.0001 45.7109 0.912627 54.2891 5.98318C59.4649 9.04267 64.6233 13.9853 68.3177 21.9422" stroke="#C9A96C" stroke-width="1.3" stroke-miterlimit="10"/>
<path d="M45.166 3.80341C15.2826 11.4938 37.2815 47.4776 24.3693 62.9308Z" fill="#56533C"/>
<path d="M45.166 3.80341C15.2826 11.4938 37.2815 47.4776 24.3693 62.9308" stroke="#C9A96C" stroke-width="1.3" stroke-miterlimit="10" stroke-linecap="round"/>
<path d="M68.7104 22.8866C66.6717 16.6144 56.5735 31.7741 49.0972 32.6307C29.193 34.9104 19.5073 30.2584 5.60132 45.9432" fill="#78724E"/>
<path d="M68.7104 22.8866C66.6717 16.6144 56.5735 31.7741 49.0972 32.6307C29.193 34.9104 19.5073 30.2584 5.60132 45.9432" stroke="#C9A96C" stroke-width="1.3" stroke-miterlimit="10" stroke-linecap="round"/>
<path d="M8.38727 42.4896L28.0261 56.1615Z" fill="#05416E" fill-opacity="0.9009"/>
<path d="M8.38727 42.4896L28.0261 56.1615" stroke="#C9A96C" stroke-width="1.3" stroke-miterlimit="10"/>
<path d="M12.0431 39.7086L28.2627 51.1368Z" fill="#05416E" fill-opacity="0.9009"/>
<path d="M12.0431 39.7086L28.2627 51.1368" stroke="#C9A96C" stroke-width="1.3" stroke-miterlimit="10"/>
<path d="M16.4321 36.9974L28.736 45.7615Z" fill="#05416E" fill-opacity="0.9009"/>
<path d="M16.4321 36.9974L28.736 45.7615" stroke="#C9A96C" stroke-width="1.3" stroke-miterlimit="10"/>
<path d="M21.6376 34.7772L28.5585 39.8386Z" fill="#05416E" fill-opacity="0.9009"/>
<path d="M21.6376 34.7772L28.5585 39.8386" stroke="#C9A96C" stroke-width="1.3" stroke-miterlimit="10"/>
<path d="M28.0796 27.3054L35.4794 33.6087Z" fill="#05416E" fill-opacity="0.9009"/>
<path d="M28.0796 27.3054L35.4794 33.6087" stroke="#C9A96C" stroke-width="1.3" stroke-miterlimit="10"/>
<path d="M29.235 20.89L42.6851 33.4791Z" fill="#05416E" fill-opacity="0.9009"/>
<path d="M29.235 20.89L42.6851 33.4791" stroke="#C9A96C" stroke-width="1.3" stroke-miterlimit="10"/>
<path d="M30.5336 15.4063L48.3276 32.3305Z" fill="#05416E" fill-opacity="0.9009"/>
<path d="M30.5336 15.4063L48.3276 32.3305" stroke="#C9A96C" stroke-width="1.3" stroke-miterlimit="10"/>
<path d="M5.42963 45.6447L26.6566 60.5803Z" fill="#05416E" fill-opacity="0.9009"/>
<path d="M5.42963 45.6447L26.6566 60.5803" stroke="#C9A96C" stroke-width="1.3" stroke-miterlimit="10"/>
<path d="M33.0923 10.3779L54.23 31.0029Z" fill="#05416E" fill-opacity="0.9009"/>
<path d="M33.0923 10.3779L54.23 31.0029" stroke="#C9A96C" stroke-width="1.3" stroke-miterlimit="10"/>
<path d="M37.0984 7.00153L58.1962 26.8683Z" fill="#05416E" fill-opacity="0.9009"/>
<path d="M37.0984 7.00153L58.1962 26.8683" stroke="#C9A96C" stroke-width="1.3" stroke-miterlimit="10"/>
<path d="M42.4402 4.16687L53.7233 14.8013L58.5062 19.3092L62.9293 23.4779" fill="#FFF0B1"/>
<path d="M42.4402 4.16687L53.7233 14.8013L58.5062 19.3092L62.9293 23.4779" stroke="#C9A96C" stroke-width="1.3" stroke-miterlimit="10"/>
</svg>
