<svg width="1280" height="635" viewBox="0 0 1280 635" fill="none" xmlns="http://www.w3.org/2000/svg">
<path opacity="0.24" d="M726 10C473.204 87.2694 174.354 365.805 726 616C599.122 616 -35.7261 616 -0.000174522 616C-0.000174522 444.822 -0.000130653 10 -0.000130653 10C-126.878 10 645.955 10 726 10Z" fill="#B4E2F7"/>
<path d="M700.465 334.883C700.465 265.421 719.764 238.865 773.734 184.803C827.703 130.741 846.764 109.121 896.644 109.121C927.444 109.121 959.675 109.554 1002.94 136.741C1046.22 163.927 1132.22 246.306 1132.22 334.883C1132.22 346.809 1133.42 366.02 1118.37 417.05C1107.4 454.254 1109.54 466.89 1073.21 513.984C1036.89 561.078 962.678 551.131 916.343 551.131C841.739 551.131 798.555 487.555 771.863 470.724C745.171 453.893 700.465 379.583 700.465 334.883Z" stroke="#2A6A9D" stroke-width="2" stroke-miterlimit="10" stroke-linejoin="round"/>
<path d="M1113.01 336.718C1113.01 334.563 1114.61 332.816 1116.57 332.816C1118.53 332.816 1120.13 334.563 1120.13 336.718C1120.13 338.872 1118.53 340.617 1116.57 340.617C1114.61 340.617 1113.01 338.872 1113.01 336.718Z" stroke="#3988A9" stroke-width="2" stroke-miterlimit="10" stroke-linejoin="round"/>
<path d="M790.22 272.647C726.301 335.357 834.507 449.642 895.727 375.71C953.329 306.145 861.781 257.673 836.355 255.031C823.134 253.657 809.076 254.15 790.22 272.647Z" stroke="#3988A9" stroke-width="2" stroke-miterlimit="10" stroke-linecap="round" stroke-linejoin="round"/>
<path d="M785.632 269.796C716.108 335.786 833.801 456.052 900.39 378.249C963.044 305.046 863.466 254.038 835.812 251.257C821.43 249.811 806.139 250.33 785.632 269.796Z" stroke="#3988A9" stroke-width="2" stroke-miterlimit="10" stroke-linecap="round" stroke-linejoin="round"/>
<path d="M806.935 307.846C787.001 320.025 808.227 355.679 826.695 343.384C847.646 329.436 826.481 304.339 809.001 307.048C808.106 307.188 807.848 307.287 806.935 307.846Z" stroke="#3988A9" stroke-width="2" stroke-miterlimit="10" stroke-linecap="round" stroke-linejoin="round"/>
<path d="M770.685 355.868C770.685 355.868 755.485 327.647 756.724 306.846C757.963 286.043 776.025 280.202 770.685 270.444C761.965 254.511 741.755 287.815 742.088 306.846C742.673 340.119 767.823 378.629 772.083 394.247C775.997 408.6 739.48 390.207 753.007 411.596C759.227 421.429 802.186 480.874 813.091 471.886C817.642 468.134 783.795 438.957 780.673 434.394C760.069 404.259 793.918 426.718 786.662 407.823C784.532 402.274 772.337 387.017 778.53 384.1C783.535 381.745 791.391 394.371 796.398 399.771C802.396 406.237 822.852 414.581 828.14 417.266C828.931 417.667 853.328 421.008 846.449 412.032C842.453 406.816 812.476 403.569 798.905 390.524C785.332 377.479 775.018 366.025 770.685 355.868Z" stroke="#3988A9" stroke-width="2" stroke-miterlimit="10" stroke-linecap="round" stroke-linejoin="round"/>
<path d="M843.933 426.087C833.127 427.805 820.228 423.656 819.062 433.315C817.223 448.541 861.781 437.553 886.478 420.03C895.489 413.637 905.371 400.193 914.422 389.288C930.82 369.532 938.338 318.558 943.599 330.564C944.73 333.147 944.307 332.944 935.401 358.712C926.496 384.483 899.877 428.817 907.98 433.642C917.019 439.025 926.406 404.167 932.319 393.25C938.568 381.716 948.41 359.097 952.264 345.926C957.135 329.277 952.562 326.047 942.161 321.409C928.136 315.152 929.874 359.656 903.471 386.918C877.065 414.182 850.578 425.029 843.933 426.087Z" stroke="#3988A9" stroke-width="2" stroke-miterlimit="10" stroke-linecap="round" stroke-linejoin="round"/>
<path d="M764.381 261.391C767.084 266.085 788.886 256.756 808.077 250.761C816.905 248.002 827.09 246.552 831.204 246.423C839.931 246.148 864.356 246.561 879.314 259.418C891.864 270.207 907.507 273.41 907.904 272.117C909.706 266.254 878.606 255.423 873.513 245.814C871.467 241.954 891.218 246.589 887.734 239.028C884.722 232.489 850.219 232.445 819.018 239.028C789.17 245.326 762.461 258.051 764.381 261.391Z" stroke="#3988A9" stroke-width="2" stroke-miterlimit="10" stroke-linecap="round" stroke-linejoin="round"/>
<path d="M914.422 295.663C924.397 309.018 919.793 311.172 926.796 315.66C929.783 317.575 926.333 300.272 928.824 299.142C932.645 297.411 949.737 312.387 952.006 306.399C954.046 301.01 943.597 298.168 935.536 286.123C921.39 264.983 903.861 233.625 897.251 240.179C896.115 241.304 905.113 248.832 905.936 249.865C913.251 259.062 928.178 278.454 924.937 291.913C922.565 301.775 898.258 268.658 896.64 276.116C895.355 282.037 907.98 287.036 914.422 295.663Z" stroke="#3988A9" stroke-width="2" stroke-miterlimit="10" stroke-linecap="round" stroke-linejoin="round"/>
<path d="M919.782 444.254C914.881 441.937 930.275 422.695 942.395 391.795C954.513 360.898 958.766 330.044 963.665 332.36C968.567 334.677 965.39 364.461 953.272 395.359C941.154 426.258 924.681 446.57 919.782 444.254Z" stroke="#3988A9" stroke-width="2" stroke-miterlimit="10" stroke-linejoin="round"/>
<path d="M908.502 230.738C911.624 228.397 925.125 239.97 935.651 256.896C946.179 273.821 949.748 289.691 946.626 292.032C943.502 294.373 937.9 275.308 927.371 258.38C916.843 241.455 905.378 233.079 908.502 230.738Z" stroke="#3988A9" stroke-width="2" stroke-miterlimit="10" stroke-linejoin="round"/>
<path d="M741.927 288.868C735.615 305.44 736.918 322.717 732.4 320.642C727.88 318.568 725.367 301.533 731.679 284.961C737.992 268.389 750.738 258.557 755.256 260.631C759.776 262.706 748.24 272.296 741.927 288.868Z" stroke="#3988A9" stroke-width="2" stroke-miterlimit="10" stroke-linejoin="round"/>
<path d="M817.148 235.341C817.624 237.35 804.801 234.986 790.178 239.165C775.553 243.345 764.668 252.485 764.192 250.476C763.716 248.468 773.6 236.136 788.223 231.956C802.845 227.777 816.672 233.332 817.148 235.341Z" stroke="#3988A9" stroke-width="2" stroke-miterlimit="10" stroke-linejoin="round"/>
<path d="M768.934 446.83C782.973 464.101 799.893 472.363 796.239 475.943C792.584 479.523 774.347 470.78 760.309 453.508C746.271 436.237 741.746 416.978 745.402 413.398C749.058 409.817 754.896 429.558 768.934 446.83Z" stroke="#3988A9" stroke-width="2" stroke-miterlimit="10" stroke-linejoin="round"/>
<path d="M819.095 450.826C817.574 445.479 835.751 446.725 854.688 440.231C873.628 433.736 886.154 421.959 887.675 427.307C889.196 432.654 875.586 444.017 856.648 450.509C837.711 457.004 820.616 456.171 819.095 450.826Z" stroke="#3988A9" stroke-width="2" stroke-miterlimit="10" stroke-linejoin="round"/>
<path d="M722.911 293.654C722.911 292.486 723.827 291.584 724.901 291.584C725.975 291.584 726.889 292.486 726.889 293.654C726.889 294.824 725.975 295.723 724.901 295.723C723.826 295.723 722.911 294.823 722.911 293.654Z" fill="#204B85" stroke="#3988A9" stroke-width="2"/>
<path d="M872.668 402.841C872.668 401.671 873.582 400.771 874.656 400.771C875.73 400.771 876.645 401.672 876.645 402.841C876.645 404.008 875.73 404.91 874.656 404.91C873.582 404.91 872.668 404.009 872.668 402.841Z" fill="#204B85" stroke="#3988A9" stroke-width="2"/>
<path d="M928.848 435.225C928.848 434.057 929.764 433.155 930.835 433.155C931.91 433.155 932.825 434.057 932.825 435.225C932.825 436.392 931.91 437.294 930.835 437.294C929.764 437.294 928.848 436.393 928.848 435.225Z" fill="#204B85" stroke="#3988A9" stroke-width="2"/>
<path d="M948.716 527.128C948.716 525.96 949.631 525.059 950.703 525.059C951.778 525.059 952.693 525.961 952.693 527.128C952.693 528.297 951.778 529.198 950.703 529.198C949.631 529.198 948.716 528.298 948.716 527.128Z" fill="#204B85" stroke="#3988A9" stroke-width="2"/>
<path d="M788.68 458.18C788.68 457.01 789.594 456.111 790.668 456.111C791.743 456.111 792.658 457.011 792.658 458.18C792.658 459.347 791.742 460.249 790.668 460.249C789.595 460.249 788.68 459.348 788.68 458.18Z" fill="#204B85" stroke="#3988A9" stroke-width="2"/>
<path d="M785.69 227.968C785.69 226.8 786.606 225.898 787.68 225.898C788.752 225.898 789.668 226.799 789.668 227.968C789.668 229.136 788.752 230.037 787.68 230.037C786.606 230.037 785.69 229.136 785.69 227.968Z" fill="#204B85" stroke="#3988A9" stroke-width="2"/>
<path d="M832.116 161.696C832.116 160.527 833.031 159.626 834.106 159.626C835.178 159.626 836.093 160.527 836.093 161.696C836.093 162.864 835.178 163.765 834.106 163.765C833.031 163.765 832.116 162.863 832.116 161.696Z" fill="#204B85" stroke="#3988A9" stroke-width="2"/>
<path d="M927.703 161.696C927.703 160.527 928.619 159.626 929.691 159.626C930.765 159.626 931.68 160.527 931.68 161.696C931.68 162.863 930.765 163.765 929.691 163.765C928.619 163.765 927.703 162.864 927.703 161.696Z" fill="#204B85" stroke="#3988A9" stroke-width="2"/>
<path d="M1045.32 479.806C1045.32 478.636 1046.23 477.737 1047.31 477.737C1048.38 477.737 1049.3 478.637 1049.3 479.806C1049.3 480.974 1048.38 481.876 1047.31 481.876C1046.23 481.876 1045.32 480.975 1045.32 479.806Z" fill="#204B85" stroke="#3988A9" stroke-width="2"/>
<path d="M1006.8 339.787C1006.8 338.617 1007.72 337.718 1008.79 337.718C1009.86 337.718 1010.78 338.618 1010.78 339.787C1010.78 340.955 1009.86 341.857 1008.79 341.857C1007.72 341.857 1006.8 340.955 1006.8 339.787Z" fill="#204B85" stroke="#3988A9" stroke-width="2"/>
<path d="M966.873 342.857C966.873 341.689 967.788 340.787 968.862 340.787C969.934 340.787 970.85 341.689 970.85 342.857C970.85 344.024 969.934 344.926 968.862 344.926C967.788 344.926 966.873 344.024 966.873 342.857Z" fill="#204B85" stroke="#3988A9" stroke-width="2"/>
<path d="M1086.94 268.718C1086.94 267.549 1087.85 266.649 1088.93 266.649C1090 266.649 1090.92 267.549 1090.92 268.718C1090.92 269.886 1090 270.788 1088.93 270.788C1087.85 270.788 1086.94 269.886 1086.94 268.718Z" fill="#204B85" stroke="#3988A9" stroke-width="2"/>
<path d="M812.184 412.971C812.184 411.804 813.1 410.902 814.171 410.902C815.246 410.902 816.161 411.804 816.161 412.971C816.161 414.142 815.245 415.043 814.171 415.043C813.1 415.043 812.184 414.142 812.184 412.971Z" fill="#204B85" stroke="#3988A9" stroke-width="2"/>
<path d="M843.555 505.168C843.555 504 844.471 503.098 845.542 503.098C846.617 503.098 847.532 504 847.532 505.168C847.532 506.335 846.617 507.237 845.542 507.237C844.471 507.237 843.555 506.336 843.555 505.168Z" fill="#204B85" stroke="#3988A9" stroke-width="2"/>
<path d="M878.645 441.364C878.645 440.196 879.561 439.294 880.633 439.294C881.707 439.294 882.622 440.196 882.622 441.364C882.622 442.531 881.707 443.433 880.633 443.433C879.561 443.433 878.645 442.531 878.645 441.364Z" fill="#204B85" stroke="#3988A9" stroke-width="2"/>
<path d="M950.274 309.916C950.274 308.747 951.189 307.846 952.264 307.846C953.338 307.846 954.252 308.746 954.252 309.916C954.252 311.084 953.338 311.985 952.264 311.985C951.19 311.985 950.274 311.083 950.274 309.916Z" fill="#204B85" stroke="#3988A9" stroke-width="2"/>
<path d="M921.726 260.357C921.726 259.19 922.642 258.288 923.713 258.288C924.788 258.288 925.703 259.19 925.703 260.357C925.703 261.525 924.788 262.427 923.713 262.427C922.642 262.427 921.726 261.525 921.726 260.357Z" fill="#204B85" stroke="#3988A9" stroke-width="2"/>
<path d="M881.633 234.107C881.633 232.939 882.548 232.037 883.622 232.037C884.694 232.037 885.61 232.938 885.61 234.107C885.61 235.275 884.694 236.176 883.622 236.176C882.548 236.176 881.633 235.275 881.633 234.107Z" fill="#204B85" stroke="#3988A9" stroke-width="2"/>
<path d="M820.007 234.107C820.007 232.938 820.923 232.037 821.994 232.037C823.069 232.037 823.984 232.939 823.984 234.107C823.984 235.275 823.069 236.176 821.994 236.176C820.923 236.176 820.007 235.275 820.007 234.107Z" fill="#204B85" stroke="#3988A9" stroke-width="2"/>
<path d="M742.204 335.306C742.204 334.138 743.118 333.237 744.192 333.237C745.266 333.237 746.181 334.139 746.181 335.306C746.181 336.474 745.266 337.376 744.192 337.376C743.118 337.376 742.204 336.475 742.204 335.306Z" fill="#204B85" stroke="#3988A9" stroke-width="2"/>
<path d="M1009.03 187.067C1000.17 202.089 994.573 257.431 1029.55 236.098C1057.7 218.925 1022.24 164.673 1009.03 187.067Z" stroke="#3988A9" stroke-width="2" stroke-miterlimit="10" stroke-linecap="round" stroke-linejoin="round"/>
<path d="M890.594 475.556C868.636 461.203 867.825 510.471 881.422 522.202C896.073 534.84 926.315 521.829 917.15 498.349C909.924 479.838 901.623 482.764 890.594 475.556Z" stroke="#3988A9" stroke-width="2" stroke-miterlimit="10" stroke-linecap="round" stroke-linejoin="round"/>
<path d="M968.029 454.491C977.305 424.109 992.051 409.464 1002.35 413.255C1012.65 417.045 1011.63 436.556 1002.35 466.938C993.076 497.32 982.151 512.028 971.85 508.237C961.549 504.446 958.755 484.873 968.029 454.491Z" stroke="#3988A9" stroke-width="2" stroke-miterlimit="10" stroke-linejoin="round"/>
<path d="M972.454 455.437C973.267 452.775 985.302 457.301 986.045 455.111C986.788 452.917 974.846 449.516 975.428 446.67C975.962 444.055 976.956 439.1 981.783 438.294C984.446 437.849 990.983 442.77 992.736 440.531C994.489 438.294 983.306 433.513 983.864 432.155C987.054 424.397 996.961 418.486 999.715 419.5C1001.97 420.33 1007.29 428.713 1005.8 432.155C1004.92 434.186 997.887 429.023 997.161 432.155C996.438 435.288 1005.11 434.332 1005.8 438.294C1006.35 441.407 1006.43 447.178 1002.35 450.407C1001.28 451.25 993.616 446.67 992.721 449.018C991.823 451.363 998.015 452.496 999.455 455.111C1000.57 457.134 1001.28 462.656 997.671 464.776C995.303 466.168 989.409 461.249 988.069 465.181C986.728 469.114 996.597 471.513 996.229 472.808C995.382 475.776 995.06 481.247 991.753 482.876C989.411 484.028 983.89 479.806 982.085 482.876C980.281 485.945 989.987 489.056 989.634 490.075C985.886 500.919 979.051 502.529 973.827 500.607C971.706 499.828 966.95 494.534 968.862 491.353C970.43 488.743 978.48 493.273 978.579 488.073C978.678 482.876 969.808 487.477 968.862 485.258C968.066 483.396 967.967 475.706 971.85 472.958C974.231 471.273 980.861 474.725 981.41 472.808C982.627 468.56 973.883 469.7 971.85 467.204C968.948 463.636 971.561 458.364 972.454 455.437Z" stroke="#3988A9" stroke-width="2" stroke-miterlimit="10" stroke-linejoin="round"/>
<path d="M858.772 201.92C858.772 189.062 876.785 178.334 906.355 178.334C935.924 178.334 955.252 190.614 955.252 203.473C955.252 216.331 935.924 224.898 906.355 224.898C876.785 224.898 858.772 214.779 858.772 201.92Z" stroke="#3988A9" stroke-width="2" stroke-miterlimit="10" stroke-linejoin="round"/>
<path d="M864.769 201.838C864.769 199.162 870.202 190.193 874.655 190.734C879.601 191.335 881.38 202.3 883.623 201.616C885.863 200.932 880.238 191.796 883.623 187.996C884.615 186.881 889.829 184.648 892.206 187.721C895.335 191.764 891.867 201.616 895.628 201.616C899.39 201.616 893.917 191.418 896.547 186.388C897.866 183.871 906.222 185.795 907.012 185.795C909.201 185.795 906.901 201.616 910.663 201.616C914.422 201.616 909.016 184.527 910.8 184.643C913.362 184.809 921.438 183.576 923.714 188.511C925.039 191.383 916.131 201.616 921.418 201.616C926.703 201.616 924.717 189.969 927.848 189.657C929.124 189.529 936.076 188.686 936.738 190.632C937.939 194.175 932.681 200.715 933.825 201.616C937.375 204.411 936.797 195.124 940.208 194.137C943.588 193.159 945.35 201.616 945.35 206.169C945.35 207.869 940.074 217.593 934.892 216.626C932.169 216.117 930.835 200.748 927.848 201.616C924.858 202.484 929.259 210.963 927.848 215.444C926.595 219.416 922.589 218.6 921.418 218.379C916.762 217.501 918.847 201.616 916.354 201.616C913.858 201.616 915.988 212.598 914.422 215.909C912.266 220.473 908.564 217.741 907.012 217.386C904.474 216.805 907.012 201.616 903.354 201.616C899.694 201.616 903.36 214.07 900.194 218.3C896.638 223.051 889.767 219.512 887.792 216.913C885.367 213.721 892.025 201.616 887.792 201.616C883.559 201.616 886.751 212.342 883.623 216.012C880.999 219.089 876.397 215.352 874.655 214.149C873.235 213.169 877.645 201.616 874.655 201.616C871.668 201.616 872.603 211.502 871.668 211.33C864.965 210.1 864.769 205.672 864.769 201.838Z" stroke="#3988A9" stroke-width="2" stroke-miterlimit="10" stroke-linejoin="round"/>
<path d="M1022.03 365.168C1022.03 331.845 1031.49 297.58 1040.94 302.213C1050.38 306.847 1031.49 331.845 1031.49 365.168C1031.49 398.491 1050.38 419.113 1040.94 422.884C1031.49 426.656 1022.03 398.491 1022.03 365.168Z" stroke="#3988A9" stroke-width="2" stroke-miterlimit="10" stroke-linejoin="round"/>
<path d="M1040.13 365.168C1040.13 336.71 1052.45 304.022 1057.25 309.916C1062.04 315.808 1050.3 334.048 1050.3 362.508C1050.3 390.965 1064.15 409.902 1057.25 412.971C1050.34 416.043 1040.13 393.625 1040.13 365.168Z" stroke="#3988A9" stroke-width="2" stroke-miterlimit="10" stroke-linejoin="round"/>
<path d="M1059.58 366.622C1059.58 347.51 1061.62 331.589 1070.15 331.589C1078.68 331.589 1066.86 347.51 1066.86 366.622C1066.86 385.73 1078.68 400.797 1070.15 400.797C1061.62 400.797 1059.58 385.73 1059.58 366.622Z" stroke="#3988A9" stroke-width="2" stroke-miterlimit="10" stroke-linejoin="round"/>
<path d="M1073.64 365.168C1073.64 352.609 1079.61 342.857 1086.73 342.857C1093.85 342.857 1079.61 352.609 1079.61 365.168C1079.61 377.726 1093.85 388.336 1086.73 388.336C1079.61 388.336 1073.64 377.726 1073.64 365.168Z" stroke="#3988A9" stroke-width="2" stroke-miterlimit="10" stroke-linejoin="round"/>
<path d="M1095.41 392.081C1095.41 390.011 1097.01 388.336 1098.97 388.336C1100.94 388.336 1102.53 390.011 1102.53 392.081C1102.53 394.148 1100.94 395.826 1098.97 395.826C1097.01 395.826 1095.41 394.148 1095.41 392.081Z" stroke="#3988A9" stroke-width="2" stroke-miterlimit="10" stroke-linejoin="round"/>
<path d="M1094.39 353.684C1094.39 349.4 1097.52 345.926 1101.38 345.926C1105.24 345.926 1108.37 349.4 1108.37 353.684C1108.37 357.969 1105.24 361.445 1101.38 361.445C1097.52 361.445 1094.39 357.969 1094.39 353.684Z" stroke="#3988A9" stroke-width="2" stroke-miterlimit="10" stroke-linejoin="round"/>
<path d="M700.465 334.829C700.465 265.351 719.764 238.788 773.734 184.712C827.703 130.637 846.764 109.012 896.644 109.012C927.444 109.012 959.675 109.445 1002.94 136.638C1046.22 163.831 1132.22 246.231 1132.22 334.829C1132.22 346.759 1133.42 365.974 1118.37 417.017C1107.4 454.229 1109.54 466.869 1073.21 513.974C1036.89 561.08 962.678 551.131 916.343 551.131C841.739 551.131 798.555 487.539 771.863 470.704C745.171 453.869 700.465 379.54 700.465 334.829Z" stroke="#2A6A9D" stroke-opacity="0.65" stroke-width="2" stroke-miterlimit="10" stroke-linejoin="round"/>
<path d="M652.004 332.693C652.004 256.658 674.609 227.589 737.823 168.411C801.035 109.233 823.361 85.5674 881.785 85.5674C917.86 85.5674 955.611 86.041 1006.29 115.8C1056.97 145.56 1157.71 235.734 1157.71 332.693C1157.71 345.748 1159.11 366.776 1141.49 422.636C1128.64 463.359 1131.14 477.191 1088.59 528.742C1046.05 580.293 959.128 569.405 904.857 569.405C817.475 569.405 766.894 499.812 735.631 481.388C704.367 462.965 652.004 381.623 652.004 332.693Z" stroke="#3471B3" stroke-opacity="0.48" stroke-width="2" stroke-miterlimit="10" stroke-linejoin="round"/>
<path d="M602.603 332.231C602.603 250.156 628.726 218.777 701.778 154.897C774.828 91.0181 800.628 65.4722 868.145 65.4722C909.834 65.4722 953.46 65.9834 1012.03 98.1069C1070.6 130.23 1187.01 227.569 1187.01 332.231C1187.01 346.323 1188.64 369.022 1168.27 429.319C1153.42 473.279 1156.31 488.209 1107.14 543.856C1057.97 599.502 957.525 587.749 894.807 587.749C793.827 587.749 735.374 512.627 699.244 492.74C663.115 472.853 602.603 385.048 602.603 332.231Z" stroke="#3471B3" stroke-opacity="0.31" stroke-width="2" stroke-miterlimit="10" stroke-linejoin="round"/>
<path d="M523.059 322.491C523.059 228.728 554.197 192.881 641.274 119.905C728.347 46.9296 759.1 17.746 839.579 17.746C889.271 17.746 941.273 18.33 1011.09 55.0279C1080.9 91.7259 1219.66 202.926 1219.66 322.491C1219.66 338.59 1221.6 364.522 1197.32 433.405C1179.62 483.624 1183.06 500.681 1124.46 564.251C1065.85 627.822 946.118 614.395 871.36 614.395C750.993 614.395 681.319 528.576 638.253 505.857C595.188 483.137 523.059 382.83 523.059 322.491Z" stroke="#3471B3" stroke-opacity="0.07" stroke-width="2" stroke-miterlimit="10" stroke-linejoin="round"/>
<path d="M437.654 323.671C437.654 224.393 473.582 186.437 574.056 109.169C674.525 31.9002 710.01 1 802.869 1C860.207 1 920.208 1.61827 1000.76 40.4749C1081.32 79.3316 1241.42 197.073 1241.42 323.671C1241.42 340.718 1243.66 368.174 1215.64 441.11C1195.22 494.283 1199.2 512.343 1131.57 579.653C1063.95 646.963 925.799 632.746 839.54 632.746C700.655 632.746 620.262 541.879 570.571 517.823C520.88 493.767 437.654 387.559 437.654 323.671Z" stroke="#3471B3" stroke-opacity="0.1" stroke-width="2" stroke-miterlimit="10" stroke-linejoin="round"/>
<path d="M1113.01 336.664C1113.01 334.51 1114.61 332.761 1116.57 332.761C1118.53 332.761 1120.13 334.51 1120.13 336.664C1120.13 338.819 1118.53 340.565 1116.57 340.565C1114.61 340.565 1113.01 338.819 1113.01 336.664Z" stroke="#3988A9" stroke-width="2" stroke-miterlimit="10" stroke-linejoin="round"/>
<path d="M790.22 272.578C726.301 335.304 834.507 449.617 895.727 375.666C953.329 306.084 861.781 257.6 836.355 254.958C823.134 253.583 809.076 254.076 790.22 272.578Z" stroke="#3988A9" stroke-width="2" stroke-miterlimit="10" stroke-linecap="round" stroke-linejoin="round"/>
<path d="M785.632 269.726C716.108 335.732 833.801 456.028 900.39 378.206C963.044 304.984 863.466 253.964 835.812 251.183C821.43 249.736 806.139 250.255 785.632 269.726Z" stroke="#3988A9" stroke-width="2" stroke-miterlimit="10" stroke-linecap="round" stroke-linejoin="round"/>
<path d="M806.935 307.786C787.001 319.967 808.227 355.63 826.695 343.333C847.646 329.381 826.481 304.277 809.001 306.987C808.106 307.127 807.848 307.227 806.935 307.786Z" stroke="#3988A9" stroke-width="2" stroke-miterlimit="10" stroke-linecap="round" stroke-linejoin="round"/>
<path d="M770.685 355.819C770.685 355.819 755.485 327.592 756.724 306.786C757.963 285.977 776.025 280.135 770.685 270.375C761.965 254.438 741.755 287.75 742.088 306.786C742.673 340.066 767.823 378.586 772.083 394.208C775.997 408.564 739.48 390.167 753.007 411.562C759.227 421.397 802.186 480.856 813.091 471.866C817.642 468.113 783.795 438.929 780.673 434.365C760.069 404.223 793.918 426.687 786.662 407.787C784.532 402.237 772.337 386.976 778.53 384.058C783.535 381.703 791.391 394.332 796.398 399.734C802.396 406.201 822.852 414.547 828.14 417.232C828.931 417.634 853.328 420.976 846.449 411.998C842.453 406.78 812.476 403.533 798.905 390.485C785.332 377.436 775.018 365.979 770.685 355.819Z" stroke="#3988A9" stroke-width="2" stroke-miterlimit="10" stroke-linecap="round" stroke-linejoin="round"/>
<path d="M843.933 426.056C833.127 427.775 820.228 423.625 819.062 433.285C817.223 448.515 861.781 437.525 886.478 419.998C895.489 413.603 905.371 400.155 914.422 389.247C930.82 369.487 938.338 318.5 943.599 330.51C944.73 333.093 944.307 332.89 935.401 358.664C926.496 384.441 899.877 428.787 907.98 433.612C917.019 438.997 926.406 404.131 932.319 393.211C938.568 381.674 948.41 359.049 952.264 345.875C957.135 329.222 952.562 325.992 942.161 321.352C928.136 315.093 929.874 359.609 903.471 386.877C877.065 414.148 850.578 424.997 843.933 426.056Z" stroke="#3988A9" stroke-width="2" stroke-miterlimit="10" stroke-linecap="round" stroke-linejoin="round"/>
<path d="M764.381 261.319C767.084 266.014 788.886 256.683 808.077 250.687C816.905 247.927 827.09 246.477 831.204 246.347C839.931 246.072 864.356 246.485 879.314 259.346C891.864 270.138 907.507 273.341 907.904 272.048C909.706 266.184 878.606 255.35 873.513 245.738C871.467 241.878 891.218 246.514 887.734 238.951C884.722 232.41 850.219 232.366 819.018 238.951C789.17 245.25 762.461 257.978 764.381 261.319Z" stroke="#3988A9" stroke-width="2" stroke-miterlimit="10" stroke-linecap="round" stroke-linejoin="round"/>
<path d="M914.422 295.6C924.397 308.958 919.793 311.113 926.796 315.602C929.783 317.517 926.333 300.21 928.824 299.079C932.645 297.348 949.737 312.328 952.006 306.338C954.046 300.948 943.597 298.106 935.536 286.057C921.39 264.912 903.861 233.546 897.251 240.102C896.115 241.227 905.113 248.757 905.936 249.79C913.251 258.99 928.178 278.387 924.937 291.849C922.565 301.713 898.258 268.588 896.64 276.048C895.355 281.97 907.98 286.97 914.422 295.6Z" stroke="#3988A9" stroke-width="2" stroke-miterlimit="10" stroke-linecap="round" stroke-linejoin="round"/>
<path d="M919.782 444.227C914.881 441.91 930.275 422.663 942.395 391.756C954.513 360.851 958.766 329.989 963.665 332.306C968.567 334.623 965.39 364.415 953.272 395.32C941.154 426.227 924.681 446.544 919.782 444.227Z" stroke="#3988A9" stroke-width="2" stroke-miterlimit="10" stroke-linejoin="round"/>
<path d="M908.502 230.658C911.624 228.317 925.125 239.893 935.651 256.823C946.179 273.752 949.748 289.626 946.626 291.968C943.502 294.309 937.9 275.239 927.371 258.307C916.843 241.378 905.378 233 908.502 230.658Z" stroke="#3988A9" stroke-width="2" stroke-miterlimit="10" stroke-linejoin="round"/>
<path d="M741.927 288.803C735.615 305.379 736.918 322.66 732.4 320.585C727.88 318.51 725.366 301.471 731.679 284.895C737.991 268.319 750.738 258.484 755.256 260.559C759.775 262.634 748.24 272.227 741.927 288.803Z" stroke="#3988A9" stroke-width="2" stroke-miterlimit="10" stroke-linejoin="round"/>
<path d="M817.148 235.262C817.624 237.272 804.801 234.907 790.178 239.088C775.553 243.269 764.668 252.411 764.192 250.402C763.716 248.392 773.6 236.058 788.223 231.877C802.845 227.697 816.672 233.253 817.148 235.262Z" stroke="#3988A9" stroke-width="2" stroke-miterlimit="10" stroke-linejoin="round"/>
<path d="M768.934 446.803C782.973 464.079 799.893 472.343 796.239 475.924C792.584 479.505 774.347 470.76 760.309 453.484C746.271 436.208 741.746 416.944 745.402 413.363C749.058 409.782 754.896 429.528 768.934 446.803Z" stroke="#3988A9" stroke-width="2" stroke-miterlimit="10" stroke-linejoin="round"/>
<path d="M819.095 450.801C817.574 445.452 835.75 446.699 854.688 440.203C873.628 433.707 886.153 421.927 887.675 427.276C889.196 432.624 875.586 443.99 856.648 450.484C837.71 456.98 820.616 456.147 819.095 450.801Z" stroke="#3988A9" stroke-width="2" stroke-miterlimit="10" stroke-linejoin="round"/>
<path d="M722.911 293.59C722.911 292.422 723.827 291.52 724.901 291.52C725.974 291.52 726.889 292.421 726.889 293.59C726.889 294.761 725.975 295.66 724.901 295.66C723.827 295.66 722.911 294.76 722.911 293.59Z" fill="#204B85" stroke="#3988A9" stroke-width="2"/>
<path d="M872.667 402.804C872.667 401.633 873.581 400.734 874.655 400.734C875.73 400.734 876.645 401.634 876.645 402.804C876.645 403.972 875.729 404.874 874.655 404.874C873.582 404.874 872.667 403.973 872.667 402.804Z" fill="#204B85" stroke="#3988A9" stroke-width="2"/>
<path d="M928.847 435.196C928.847 434.027 929.764 433.126 930.835 433.126C931.909 433.126 932.825 434.028 932.825 435.196C932.825 436.364 931.909 437.266 930.835 437.266C929.764 437.266 928.847 436.364 928.847 435.196Z" fill="#204B85" stroke="#3988A9" stroke-width="2"/>
<path d="M948.715 527.122C948.715 525.954 949.631 525.052 950.703 525.052C951.777 525.052 952.693 525.954 952.693 527.122C952.693 528.292 951.778 529.192 950.703 529.192C949.631 529.192 948.715 528.292 948.715 527.122Z" fill="#204B85" stroke="#3988A9" stroke-width="2"/>
<path d="M788.68 458.157C788.68 456.986 789.594 456.087 790.668 456.087C791.742 456.087 792.658 456.987 792.658 458.157C792.658 459.325 791.742 460.227 790.668 460.227C789.595 460.227 788.68 459.326 788.68 458.157Z" fill="#204B85" stroke="#3988A9" stroke-width="2"/>
<path d="M785.69 227.888C785.69 226.719 786.606 225.818 787.68 225.818C788.752 225.818 789.668 226.719 789.668 227.888C789.668 229.057 788.752 229.958 787.68 229.958C786.606 229.958 785.69 229.056 785.69 227.888Z" fill="#204B85" stroke="#3988A9" stroke-width="2"/>
<path d="M832.116 161.599C832.116 160.43 833.032 159.529 834.106 159.529C835.177 159.529 836.093 160.43 836.093 161.599C836.093 162.768 835.177 163.669 834.106 163.669C833.031 163.669 832.116 162.768 832.116 161.599Z" fill="#204B85" stroke="#3988A9" stroke-width="2"/>
<path d="M927.703 161.599C927.703 160.43 928.619 159.529 929.691 159.529C930.765 159.529 931.68 160.43 931.68 161.599C931.68 162.768 930.765 163.669 929.691 163.669C928.619 163.669 927.703 162.768 927.703 161.599Z" fill="#204B85" stroke="#3988A9" stroke-width="2"/>
<path d="M1045.32 479.789C1045.32 478.618 1046.23 477.718 1047.31 477.718C1048.38 477.718 1049.3 478.619 1049.3 479.789C1049.3 480.957 1048.38 481.859 1047.31 481.859C1046.23 481.859 1045.32 480.957 1045.32 479.789Z" fill="#204B85" stroke="#3988A9" stroke-width="2"/>
<path d="M1006.8 339.735C1006.8 338.564 1007.72 337.664 1008.79 337.664C1009.86 337.664 1010.78 338.565 1010.78 339.735C1010.78 340.903 1009.86 341.805 1008.79 341.805C1007.72 341.805 1006.8 340.903 1006.8 339.735Z" fill="#204B85" stroke="#3988A9" stroke-width="2"/>
<path d="M966.872 342.805C966.872 341.637 967.788 340.735 968.862 340.735C969.933 340.735 970.849 341.636 970.849 342.805C970.849 343.973 969.933 344.875 968.862 344.875C967.788 344.875 966.872 343.973 966.872 342.805Z" fill="#204B85" stroke="#3988A9" stroke-width="2"/>
<path d="M1086.94 268.648C1086.94 267.479 1087.85 266.578 1088.93 266.578C1090 266.578 1090.92 267.478 1090.92 268.648C1090.92 269.817 1090 270.719 1088.93 270.719C1087.85 270.719 1086.94 269.816 1086.94 268.648Z" fill="#204B85" stroke="#3988A9" stroke-width="2"/>
<path d="M812.184 412.937C812.184 411.769 813.1 410.867 814.171 410.867C815.246 410.867 816.161 411.769 816.161 412.937C816.161 414.108 815.245 415.01 814.171 415.01C813.1 415.01 812.184 414.108 812.184 412.937Z" fill="#204B85" stroke="#3988A9" stroke-width="2"/>
<path d="M843.555 505.156C843.555 503.988 844.471 503.086 845.542 503.086C846.616 503.086 847.532 503.988 847.532 505.156C847.532 506.324 846.616 507.226 845.542 507.226C844.471 507.226 843.555 506.325 843.555 505.156Z" fill="#204B85" stroke="#3988A9" stroke-width="2"/>
<path d="M878.645 441.336C878.645 440.168 879.561 439.266 880.632 439.266C881.706 439.266 882.622 440.168 882.622 441.336C882.622 442.504 881.706 443.406 880.632 443.406C879.561 443.406 878.645 442.505 878.645 441.336Z" fill="#204B85" stroke="#3988A9" stroke-width="2"/>
<path d="M950.274 309.856C950.274 308.686 951.189 307.786 952.264 307.786C953.338 307.786 954.252 308.685 954.252 309.856C954.252 311.025 953.337 311.926 952.264 311.926C951.19 311.926 950.274 311.024 950.274 309.856Z" fill="#204B85" stroke="#3988A9" stroke-width="2"/>
<path d="M921.726 260.285C921.726 259.117 922.642 258.215 923.713 258.215C924.788 258.215 925.703 259.117 925.703 260.285C925.703 261.453 924.788 262.355 923.713 262.355C922.642 262.355 921.726 261.454 921.726 260.285Z" fill="#204B85" stroke="#3988A9" stroke-width="2"/>
<path d="M881.633 234.028C881.633 232.86 882.548 231.958 883.622 231.958C884.694 231.958 885.61 232.859 885.61 234.028C885.61 235.198 884.694 236.099 883.622 236.099C882.548 236.099 881.633 235.197 881.633 234.028Z" fill="#204B85" stroke="#3988A9" stroke-width="2"/>
<path d="M820.007 234.028C820.007 232.859 820.923 231.958 821.994 231.958C823.069 231.958 823.984 232.86 823.984 234.028C823.984 235.197 823.069 236.099 821.994 236.099C820.923 236.099 820.007 235.198 820.007 234.028Z" fill="#204B85" stroke="#3988A9" stroke-width="2"/>
<path d="M742.204 335.253C742.204 334.084 743.119 333.183 744.192 333.183C745.266 333.183 746.181 334.085 746.181 335.253C746.181 336.421 745.266 337.323 744.192 337.323C743.119 337.323 742.204 336.422 742.204 335.253Z" fill="#204B85" stroke="#3988A9" stroke-width="2"/>
<path d="M1009.03 186.977C1000.17 202.003 994.573 257.358 1029.55 236.02C1057.7 218.843 1022.24 164.577 1009.03 186.977Z" stroke="#3988A9" stroke-width="2" stroke-miterlimit="10" stroke-linecap="round" stroke-linejoin="round"/>
<path d="M890.594 475.537C868.636 461.181 867.825 510.461 881.422 522.195C896.073 534.836 926.315 521.822 917.15 498.335C909.924 479.82 901.623 482.747 890.594 475.537Z" stroke="#3988A9" stroke-width="2" stroke-miterlimit="10" stroke-linecap="round" stroke-linejoin="round"/>
<path d="M968.029 454.467C977.305 424.077 992.051 409.429 1002.35 413.22C1012.65 417.012 1011.63 436.528 1002.35 466.917C993.076 497.306 982.151 512.018 971.85 508.226C961.549 504.435 958.755 484.856 968.029 454.467Z" stroke="#3988A9" stroke-width="2" stroke-miterlimit="10" stroke-linejoin="round"/>
<path d="M972.454 455.414C973.267 452.75 985.302 457.278 986.045 455.087C986.788 452.893 974.846 449.491 975.428 446.644C975.962 444.029 976.956 439.072 981.783 438.266C984.446 437.821 990.983 442.743 992.736 440.503C994.489 438.266 983.306 433.484 983.864 432.126C987.054 424.366 996.961 418.453 999.715 419.467C1001.97 420.298 1007.29 428.683 1005.8 432.126C1004.92 434.157 997.887 428.993 997.161 432.126C996.438 435.259 1005.11 434.302 1005.8 438.266C1006.35 441.38 1006.43 447.152 1002.35 450.382C1001.28 451.225 993.616 446.644 992.721 448.992C991.823 451.338 998.015 452.472 999.455 455.087C1000.57 457.111 1001.28 462.634 997.671 464.755C995.303 466.147 989.409 461.227 988.069 465.159C986.728 469.094 996.597 471.493 996.229 472.789C995.382 475.757 995.06 481.229 991.753 482.859C989.411 484.011 983.89 479.788 982.085 482.859C980.281 485.929 989.987 489.04 989.634 490.06C985.886 500.907 979.051 502.517 973.827 500.594C971.706 499.815 966.95 494.52 968.862 491.338C970.43 488.728 978.48 493.258 978.579 488.057C978.678 482.859 969.808 487.462 968.862 485.241C968.066 483.379 967.967 475.687 971.85 472.939C974.231 471.253 980.861 474.706 981.41 472.789C982.627 468.539 973.883 469.68 971.85 467.183C968.948 463.614 971.561 458.341 972.454 455.414Z" stroke="#3988A9" stroke-width="2" stroke-miterlimit="10" stroke-linejoin="round"/>
<path d="M858.771 201.834C858.771 188.972 876.785 178.241 906.355 178.241C935.924 178.241 955.252 190.525 955.252 203.387C955.252 216.249 935.924 224.818 906.355 224.818C876.785 224.818 858.771 214.696 858.771 201.834Z" stroke="#3988A9" stroke-width="2" stroke-miterlimit="10" stroke-linejoin="round"/>
<path d="M864.769 201.751C864.769 199.075 870.201 190.103 874.655 190.644C879.601 191.245 881.38 202.214 883.622 201.53C885.862 200.845 880.238 191.707 883.622 187.906C884.614 186.791 889.829 184.557 892.206 187.631C895.335 191.675 891.866 201.53 895.628 201.53C899.389 201.53 893.917 191.329 896.547 186.298C897.866 183.78 906.222 185.705 907.011 185.705C909.201 185.705 906.901 201.53 910.663 201.53C914.422 201.53 909.016 184.436 910.799 184.552C913.361 184.718 921.438 183.485 923.713 188.421C925.038 191.294 916.131 201.53 921.418 201.53C926.703 201.53 924.716 189.879 927.847 189.567C929.124 189.44 936.076 188.596 936.737 190.543C937.939 194.086 932.68 200.628 933.825 201.53C937.375 204.325 936.797 195.035 940.208 194.049C943.588 193.07 945.35 201.53 945.35 206.083C945.35 207.784 940.073 217.51 934.892 216.543C932.169 216.034 930.835 200.661 927.847 201.53C924.858 202.398 929.258 210.879 927.847 215.361C926.595 219.334 922.589 218.517 921.418 218.297C916.761 217.419 918.847 201.53 916.353 201.53C913.858 201.53 915.987 212.514 914.422 215.826C912.266 220.392 908.564 217.658 907.011 217.303C904.474 216.722 907.011 201.53 903.354 201.53C899.694 201.53 903.36 213.987 900.194 218.217C896.638 222.97 889.767 219.43 887.792 216.83C885.366 213.638 892.025 201.53 887.792 201.53C883.558 201.53 886.751 212.258 883.622 215.929C880.999 219.007 876.397 215.269 874.655 214.066C873.235 213.085 877.645 201.53 874.655 201.53C871.668 201.53 872.602 211.418 871.668 211.246C864.965 210.015 864.769 205.586 864.769 201.751Z" stroke="#3988A9" stroke-width="2" stroke-miterlimit="10" stroke-linejoin="round"/>
<path d="M1022.03 365.122C1022.03 331.79 1031.49 297.517 1040.94 302.152C1050.38 306.786 1031.49 331.79 1031.49 365.122C1031.49 398.453 1050.38 419.08 1040.94 422.852C1031.49 426.624 1022.03 398.453 1022.03 365.122Z" stroke="#3988A9" stroke-width="2" stroke-miterlimit="10" stroke-linejoin="round"/>
<path d="M1040.13 365.122C1040.13 336.657 1052.45 303.96 1057.25 309.856C1062.04 315.75 1050.3 333.994 1050.3 362.461C1050.3 390.925 1064.15 409.867 1057.25 412.937C1050.34 416.01 1040.13 393.586 1040.13 365.122Z" stroke="#3988A9" stroke-width="2" stroke-miterlimit="10" stroke-linejoin="round"/>
<path d="M1059.58 366.576C1059.58 347.46 1061.61 331.535 1070.15 331.535C1078.68 331.535 1066.86 347.46 1066.86 366.576C1066.86 385.689 1078.68 400.759 1070.15 400.759C1061.61 400.759 1059.58 385.689 1059.58 366.576Z" stroke="#3988A9" stroke-width="2" stroke-miterlimit="10" stroke-linejoin="round"/>
<path d="M1073.64 365.122C1073.64 352.56 1079.61 342.805 1086.73 342.805C1093.85 342.805 1079.61 352.56 1079.61 365.122C1079.61 377.683 1093.85 388.296 1086.73 388.296C1079.61 388.296 1073.64 377.683 1073.64 365.122Z" stroke="#3988A9" stroke-width="2" stroke-miterlimit="10" stroke-linejoin="round"/>
<path d="M1095.41 392.041C1095.41 389.971 1097.01 388.296 1098.97 388.296C1100.94 388.296 1102.53 389.971 1102.53 392.041C1102.53 394.109 1100.94 395.787 1098.97 395.787C1097.01 395.787 1095.41 394.109 1095.41 392.041Z" stroke="#3988A9" stroke-width="2" stroke-miterlimit="10" stroke-linejoin="round"/>
<path d="M1094.39 353.635C1094.39 349.349 1097.52 345.875 1101.38 345.875C1105.24 345.875 1108.37 349.349 1108.37 353.635C1108.37 357.921 1105.24 361.398 1101.38 361.398C1097.52 361.398 1094.39 357.921 1094.39 353.635Z" stroke="#3988A9" stroke-width="2" stroke-miterlimit="10" stroke-linejoin="round"/>
<path opacity="0.24" d="M958 10C1277.61 104.144 1377.66 387.172 1134.63 616C1188.12 616 1249.39 616 1280.37 616C1280.37 438.472 1280.37 10 1280.37 10C1333.7 10 991.648 10 958 10Z" fill="#B4E2F7"/>
</svg>
